<?xml version="1.0" encoding="UTF-8" standalone="no"?>
<!-- Created with Inkscape (http://www.inkscape.org/) -->

<svg
   width="108.68336mm"
   height="75.618126mm"
   viewBox="0 0 108.68337 75.618126"
   version="1.1"
   id="svg1"
   inkscape:version="1.3.2 (091e20ef0f, 2023-11-25, custom)"
   sodipodi:docname="tractor_side_view.svg"
   xmlns:inkscape="http://www.inkscape.org/namespaces/inkscape"
   xmlns:sodipodi="http://sodipodi.sourceforge.net/DTD/sodipodi-0.dtd"
   xmlns:xlink="http://www.w3.org/1999/xlink"
   xmlns="http://www.w3.org/2000/svg"
   xmlns:svg="http://www.w3.org/2000/svg">
  <sodipodi:namedview
     id="namedview1"
     pagecolor="#505050"
     bordercolor="#eeeeee"
     borderopacity="1"
     inkscape:showpageshadow="0"
     inkscape:pageopacity="0"
     inkscape:pagecheckerboard="0"
     inkscape:deskcolor="#d1d1d1"
     inkscape:document-units="mm"
     inkscape:zoom="42.564052"
     inkscape:cx="252.71325"
     inkscape:cy="33.502449"
     inkscape:window-width="2048"
     inkscape:window-height="1072"
     inkscape:window-x="0"
     inkscape:window-y="0"
     inkscape:window-maximized="1"
     inkscape:current-layer="layer1"
     showgrid="false" />
  <defs
     id="defs1">
    <linearGradient
       id="linearGradient15"
       inkscape:collect="always">
      <stop
         style="stop-color:#272727;stop-opacity:1;"
         offset="0"
         id="stop17" />
      <stop
         style="stop-color:#555555;stop-opacity:1;"
         offset="1"
         id="stop16" />
    </linearGradient>
    <linearGradient
       id="linearGradient13"
       inkscape:collect="always"
       inkscape:label="Fender paint">
      <stop
         style="stop-color:#800000;stop-opacity:1;"
         offset="0"
         id="stop13" />
      <stop
         style="stop-color:#b20000;stop-opacity:1;"
         offset="0.5"
         id="stop15" />
      <stop
         style="stop-color:#800000;stop-opacity:1;"
         offset="1"
         id="stop14" />
    </linearGradient>
    <linearGradient
       id="linearGradient11"
       inkscape:collect="always">
      <stop
         style="stop-color:#151515;stop-opacity:1;"
         offset="0"
         id="stop12" />
      <stop
         style="stop-color:#272727;stop-opacity:1;"
         offset="1"
         id="stop11" />
    </linearGradient>
    <linearGradient
       id="linearGradient9"
       inkscape:collect="always">
      <stop
         style="stop-color:#080808;stop-opacity:1;"
         offset="0"
         id="stop9" />
      <stop
         style="stop-color:#323232;stop-opacity:1;"
         offset="1"
         id="stop10" />
    </linearGradient>
    <linearGradient
       id="linearGradient6"
       inkscape:collect="always"
       inkscape:label="Bonnet paint">
      <stop
         style="stop-color:#cb0000;stop-opacity:1;"
         offset="0"
         id="stop6" />
      <stop
         style="stop-color:#640000;stop-opacity:1;"
         offset="1"
         id="stop7" />
    </linearGradient>
    <linearGradient
       id="linearGradient29"
       inkscape:collect="always">
      <stop
         style="stop-color:#beffff;stop-opacity:0.33197555;"
         offset="0"
         id="stop30" />
      <stop
         style="stop-color:#00ffff;stop-opacity:0.03462322;"
         offset="1"
         id="stop31" />
    </linearGradient>
    <linearGradient
       id="swatch28"
       inkscape:swatch="solid">
      <stop
         style="stop-color:#00ffff;stop-opacity:1;"
         offset="0"
         id="stop29" />
    </linearGradient>
    <inkscape:path-effect
       effect="tiling"
       id="path-effect17"
       is_visible="true"
       lpeversion="1"
       unit="px"
       seed="1;1"
       lpesatellites="#path10 | #path15"
       num_rows="3"
       num_cols="1"
       gapx="0"
       gapy="-1.5"
       offset="0"
       offset_type="false"
       scale="0"
       rotate="0"
       mirrorrowsx="false"
       mirrorrowsy="false"
       mirrorcolsx="false"
       mirrorcolsy="false"
       mirrortrans="false"
       shrink_interp="false"
       split_items="true"
       link_styles="false"
       interpolate_scalex="false"
       interpolate_scaley="true"
       interpolate_rotatex="false"
       interpolate_rotatey="true"
       random_scale="false"
       random_rotate="false"
       random_gap_y="false"
       random_gap_x="false"
       transformorigin="" />
    <inkscape:path-effect
       effect="tiling"
       id="path-effect16"
       is_visible="true"
       lpeversion="1"
       unit="px"
       seed="1;1"
       lpesatellites=""
       num_rows="3"
       num_cols="1"
       gapx="0"
       gapy="0"
       offset="0"
       offset_type="false"
       scale="0"
       rotate="0"
       mirrorrowsx="false"
       mirrorrowsy="false"
       mirrorcolsx="false"
       mirrorcolsy="false"
       mirrortrans="false"
       shrink_interp="false"
       split_items="false"
       link_styles="false"
       interpolate_scalex="false"
       interpolate_scaley="true"
       interpolate_rotatex="false"
       interpolate_rotatey="true"
       random_scale="false"
       random_rotate="false"
       random_gap_y="false"
       random_gap_x="false"
       transformorigin="" />
    <inkscape:path-effect
       effect="tiling"
       id="path-effect15"
       is_visible="true"
       lpeversion="1"
       unit="px"
       seed="1;1"
       lpesatellites=""
       num_rows="3"
       num_cols="1"
       gapx="0"
       gapy="0"
       offset="0"
       offset_type="false"
       scale="0"
       rotate="0"
       mirrorrowsx="false"
       mirrorrowsy="false"
       mirrorcolsx="false"
       mirrorcolsy="false"
       mirrortrans="false"
       shrink_interp="false"
       split_items="false"
       link_styles="false"
       interpolate_scalex="false"
       interpolate_scaley="true"
       interpolate_rotatex="false"
       interpolate_rotatey="true"
       random_scale="false"
       random_rotate="false"
       random_gap_y="false"
       random_gap_x="false"
       transformorigin="" />
    <inkscape:path-effect
       effect="tiling"
       id="path-effect14"
       is_visible="true"
       lpeversion="1"
       unit="px"
       seed="1;2139095038"
       lpesatellites=""
       num_rows="3"
       num_cols="1"
       gapx="0"
       gapy="0"
       offset="0"
       offset_type="false"
       scale="0"
       rotate="0"
       mirrorrowsx="false"
       mirrorrowsy="false"
       mirrorcolsx="false"
       mirrorcolsy="false"
       mirrortrans="false"
       shrink_interp="false"
       split_items="false"
       link_styles="false"
       interpolate_scalex="false"
       interpolate_scaley="true"
       interpolate_rotatex="false"
       interpolate_rotatey="true"
       random_scale="false"
       random_rotate="false"
       random_gap_y="false"
       random_gap_x="false"
       transformorigin="" />
    <inkscape:path-effect
       effect="copy_rotate"
       starting_point="137,72"
       origin="37,72"
       id="path-effect3"
       is_visible="true"
       lpeversion="1.2"
       lpesatellites=""
       method="normal"
       num_copies="8"
       starting_angle="0"
       rotation_angle="45"
       gap="-0.01"
       copies_to_360="true"
       mirror_copies="false"
       split_items="false"
       link_styles="false" />
    <inkscape:path-effect
       effect="copy_rotate"
       starting_point="74.47,-53.9"
       origin="74.47,46.1"
       id="path-effect1"
       is_visible="true"
       lpeversion="1.2"
       lpesatellites=""
       method="normal"
       num_copies="8"
       starting_angle="90"
       rotation_angle="45"
       gap="-0.01"
       copies_to_360="true"
       mirror_copies="false"
       split_items="false"
       link_styles="false" />
    <linearGradient
       id="linearGradient109"
       inkscape:collect="always">
      <stop
         style="stop-color:#000000;stop-opacity:1;"
         offset="0"
         id="stop110" />
      <stop
         style="stop-color:#7e7e7e;stop-opacity:0;"
         offset="1"
         id="stop111" />
    </linearGradient>
    <linearGradient
       id="linearGradient102"
       inkscape:collect="always">
      <stop
         style="stop-color:#000000;stop-opacity:1;"
         offset="0"
         id="stop102" />
      <stop
         style="stop-color:#c4c4c4;stop-opacity:0;"
         offset="1"
         id="stop103" />
    </linearGradient>
    <inkscape:path-effect
       effect="copy_rotate"
       starting_point="128.57,47.4"
       origin="28.57,47.4"
       id="path-effect80"
       is_visible="true"
       lpeversion="1.2"
       lpesatellites=""
       method="normal"
       num_copies="22"
       starting_angle="0"
       rotation_angle="16.363636"
       gap="-0.1"
       copies_to_360="true"
       mirror_copies="false"
       split_items="false"
       link_styles="false" />
    <inkscape:path-effect
       effect="bend_path"
       id="path-effect79"
       is_visible="true"
       lpeversion="1"
       bendpath="M 15,44.532253 H 37"
       prop_scale="1"
       scale_y_rel="false"
       vertical="false"
       hide_knot="false" />
    <inkscape:path-effect
       effect="show_handles"
       id="path-effect78"
       is_visible="true"
       lpeversion="1"
       nodes="true"
       handles="true"
       original_path="true"
       show_center_node="false"
       original_d="false"
       scale_nodes_and_handles="10" />
    <inkscape:path-effect
       effect="gears"
       id="path-effect77"
       is_visible="true"
       lpeversion="1"
       teeth="60"
       phi="32"
       min_radius="5" />
    <inkscape:path-effect
       effect="ruler"
       id="path-effect76"
       is_visible="true"
       lpeversion="1"
       unit="px"
       mark_distance="20"
       mark_length="14"
       minor_mark_length="7"
       major_mark_steps="5"
       shift="0"
       offset="0"
       mark_dir="left"
       border_marks="both" />
    <inkscape:path-effect
       effect="copy_rotate"
       starting_point="0,0"
       origin="15,44.532253"
       id="path-effect72"
       is_visible="true"
       lpeversion="1.2"
       lpesatellites=""
       method="normal"
       num_copies="6"
       starting_angle="0"
       rotation_angle="60"
       gap="-0.01"
       copies_to_360="true"
       mirror_copies="false"
       split_items="false"
       link_styles="false" />
    <inkscape:path-effect
       effect="sketch"
       id="path-effect71"
       is_visible="true"
       lpeversion="1"
       nbiter_approxstrokes="5"
       parallel_offset="5;1"
       strokelength="100"
       strokelength_rdm="0.3;1"
       strokeoverlap="0.3"
       strokeoverlap_rdm="0.3;1"
       ends_tolerance="0.1;1"
       tremble_size="5;1"
       tremble_frequency="1"
       nbtangents="5"
       tgt_places_rdmness="1;1"
       tgtlength="100"
       tgtlength_rdm="0.3;1"
       tgtscale="10" />
    <inkscape:path-effect
       effect="rough_hatches"
       id="path-effect70"
       is_visible="true"
       lpeversion="1.2"
       direction="26,39.532253 , 5.5,0"
       dist_rdm="75;1"
       growth="0"
       do_bend="true"
       bender="26,44.532253 , 5,0"
       bottom_edge_variation="2.2;1"
       top_edge_variation="2.2;1"
       bottom_tgt_variation="0;1"
       top_tgt_variation="0;1"
       scale_bf="1"
       scale_bb="1"
       scale_tf="1"
       scale_tb="1"
       top_smth_variation="0;1"
       bottom_smth_variation="0;1"
       fat_output="true"
       stroke_width_top="1"
       stroke_width_bottom="1"
       front_thickness="1"
       back_thickness="0.25" />
    <inkscape:path-effect
       effect="roughen"
       id="path-effect69"
       is_visible="true"
       lpeversion="1.2"
       global_randomize="2.9;2052411330"
       displace_x="10;1"
       displace_y="0.146667;1540909177"
       method="segments"
       max_segment_size="0.1"
       segments="100"
       handles="along"
       shift_nodes="true"
       fixed_displacement="false"
       spray_tool_friendly="false" />
    <clipPath
       clipPathUnits="userSpaceOnUse"
       id="clipPath65">
      <path
         id="path65"
         style="stroke-width:0.1;stroke-linecap:square;paint-order:markers fill stroke;stop-color:#000000"
         d="m -880.82767,-187.29769 h 1640.84 v 73.28155 h -1640.84 z" />
    </clipPath>
    <clipPath
       clipPathUnits="userSpaceOnUse"
       id="clipPath55">
      <path
         id="path57"
         style="stroke-width:0.1;stroke-linecap:square;paint-order:markers fill stroke;stop-color:#000000"
         d="m 1736.6147,-745.57287 h 1589.4765 v 72.46715 H 1736.6147 Z" />
    </clipPath>
    <clipPath
       clipPathUnits="userSpaceOnUse"
       id="clipPath5">
      <path
         id="path55"
         style="stroke-width:0.1;stroke-linecap:square;paint-order:markers fill stroke;stop-color:#000000"
         d="M 438.25066,553.76374 H 1298.1212 V 755.15928 H 438.25066 Z"
         sodipodi:nodetypes="ccccc" />
    </clipPath>
    <clipPath
       clipPathUnits="userSpaceOnUse"
       id="clipPath54">
      <path
         id="path54"
         style="stroke-width:0.0999999;stroke-linecap:square;paint-order:markers fill stroke;stop-color:#000000"
         d="m 1691.1994,-792.32001 h 1634.8919 v 92.82806 H 1691.1994 Z" />
    </clipPath>
    <clipPath
       clipPathUnits="userSpaceOnUse"
       id="clipPath52">
      <path
         id="path52"
         style="stroke-width:0.1;stroke-linecap:square;paint-order:markers fill stroke;stop-color:#000000"
         d="m -880.82767,-187.29769 h 1640.84 v 73.28155 h -1640.84 z" />
    </clipPath>
    <linearGradient
       id="swatch42"
       inkscape:swatch="solid">
      <stop
         style="stop-color:#b3b3b3;stop-opacity:1;"
         offset="0"
         id="stop42" />
    </linearGradient>
    <clipPath
       clipPathUnits="userSpaceOnUse"
       id="clipPath15">
      <rect
         style="fill:none;stroke:#000000;stroke-linecap:butt;stroke-linejoin:bevel;paint-order:stroke markers fill;stop-color:#000000"
         id="rect15-7"
         width="45.034248"
         height="38.955639"
         x="262.48285"
         y="121.00073" />
    </clipPath>
    <inkscape:path-effect
       effect="copy_rotate"
       starting_point="128.57,47.45"
       origin="28.57,47.45"
       id="path-effect80-3"
       is_visible="true"
       lpeversion="1.2"
       lpesatellites=""
       method="normal"
       num_copies="19"
       starting_angle="0"
       rotation_angle="18.947368"
       gap="-0.1"
       copies_to_360="true"
       mirror_copies="false"
       split_items="false"
       link_styles="false" />
    <radialGradient
       inkscape:collect="always"
       xlink:href="#linearGradient102"
       id="radialGradient103"
       cx="74.469238"
       cy="46.123806"
       fx="74.469238"
       fy="46.123806"
       r="7.6302323"
       gradientUnits="userSpaceOnUse" />
    <radialGradient
       inkscape:collect="always"
       xlink:href="#linearGradient109"
       id="radialGradient111"
       cx="28.57"
       cy="47.400002"
       fx="28.57"
       fy="47.400002"
       r="10.450209"
       gradientUnits="userSpaceOnUse" />
    <linearGradient
       inkscape:collect="always"
       xlink:href="#linearGradient29"
       id="linearGradient31"
       x1="31.792355"
       y1="46.157726"
       x2="75.018059"
       y2="46.157726"
       gradientUnits="userSpaceOnUse"
       gradientTransform="matrix(1.0002633,0,0,0.91163731,-0.01395238,6.2111241)" />
    <linearGradient
       inkscape:collect="always"
       xlink:href="#linearGradient6"
       id="linearGradient7"
       x1="118.42482"
       y1="45.489834"
       x2="112.30499"
       y2="68.329346"
       gradientUnits="userSpaceOnUse" />
    <linearGradient
       inkscape:collect="always"
       xlink:href="#linearGradient9"
       id="linearGradient10"
       x1="76.292339"
       y1="46.294617"
       x2="82.931296"
       y2="46.294617"
       gradientUnits="userSpaceOnUse" />
    <linearGradient
       inkscape:collect="always"
       xlink:href="#linearGradient11"
       id="linearGradient12"
       x1="82.053276"
       y1="82.578835"
       x2="82.053276"
       y2="62.881763"
       gradientUnits="userSpaceOnUse" />
    <linearGradient
       inkscape:collect="always"
       xlink:href="#linearGradient13"
       id="linearGradient14"
       x1="21.053619"
       y1="59.215085"
       x2="61.672681"
       y2="59.215085"
       gradientUnits="userSpaceOnUse" />
    <radialGradient
       inkscape:collect="always"
       xlink:href="#linearGradient15"
       id="radialGradient17"
       cx="28.799999"
       cy="37.952023"
       fx="28.799999"
       fy="37.952023"
       r="1.5941"
       gradientUnits="userSpaceOnUse" />
  </defs>
  <g
     inkscape:label="Layer 1"
     inkscape:groupmode="layer"
     id="layer1"
     style="display:inline"
     transform="translate(-14.740359,-18.672392)">
    <path
       style="fill:#4d4d4d;stroke:#000000;stroke-width:0.264583;stroke-opacity:1"
       d="m 123.29143,66.977743 v 4.677217 h -9.44798 -13.28329 L 94.822295,74.967718 92.514297,77.4056 H 57.62331 V 63.423058 l 1.473162,6.051842 15.442348,-0.0053 1.419178,-6.046506 z"
       id="path7"
       inkscape:label="Frame"
       sodipodi:nodetypes="cccccccccccc"
       sodipodi:insensitive="true" />
    <g
       id="g20"
       inkscape:label="Bonnet"
       sodipodi:insensitive="true">
      <path
         style="fill:url(#linearGradient7);stroke:#000000;stroke-width:0.281955;stroke-opacity:1"
         d="m 76,45.695771 c 15.51538,0.283071 31.54169,3.976981 39.29544,6.164472 2.70067,1.032611 3.43255,2.949795 3.26812,9.271317 l -0.0489,5.427995 L 76,63.664 Z"
         id="path4"
         sodipodi:nodetypes="cccccc"
         inkscape:label="Bonnet painted" />
      <path
         style="display:inline;fill:#333333;stroke:#000000;stroke-width:0.264583;stroke-opacity:1"
         d="m 112.96649,55.085542 c 1.57797,1.851161 2.17359,7.433722 1.97729,11.096902 l 3.55653,0.401196 c 0.2602,-2.829878 0.19669,-8.016627 -0.0634,-10.120875 z"
         id="path20"
         inkscape:label="Bonnet vent"
         sodipodi:nodetypes="ccccc" />
      <path
         style="display:inline;fill:#999999;stroke:#000000;stroke-width:0.286276;stroke-opacity:1"
         d="m 76.209834,47.591679 c 13.057211,0.202883 25.926526,2.287677 37.910316,5.404387 l 3.72985,1.138635 c 0.30665,0.660812 0.54811,1.678205 0.58004,2.352013 l -4.37371,-1.124519 C 101.32705,51.979953 89.135141,51.028732 76.209834,50.132041 Z"
         id="path19"
         inkscape:label="Bonnet branding stripe"
         sodipodi:nodetypes="ccccccc" />
    </g>
    <g
       id="g21"
       inkscape:label="Front fender"
       style="stroke:#080808;stroke-opacity:1"
       sodipodi:insensitive="true">
      <path
         style="display:inline;fill:#1a1a1a;stroke:#080808;stroke-width:0.264583;stroke-opacity:1"
         d="M 104.80353,57.63606 V 75.750251 H 84.550067 V 74.011304 H 102.56674 V 57.63606 Z"
         id="path21"
         sodipodi:nodetypes="ccccccc"
         inkscape:label="Front fender support" />
      <path
         style="display:inline;fill:#333333;stroke:#080808;stroke-width:0.264583;stroke-opacity:1"
         d="m 84.836328,78.265194 c 2.191247,-9.462604 5.49986,-22.578782 23.734592,-19.70246 l 1.36541,-1.838385 C 87.489385,53.193856 84.779387,68.561228 82.705559,78.945456 Z"
         id="path2"
         sodipodi:nodetypes="ccccc"
         inkscape:label="Front fender plastic" />
    </g>
    <g
       id="g101"
       inkscape:label="Front wheel"
       style="display:inline">
      <path
         id="path6-1"
         style="fill:#1a1a1a;stroke:#050505;stroke-linejoin:bevel;stroke-width:0.40000042219023635"
         d="M 120.916 76.8407 C 120.916 81.2816 119.151 85.5407 116.01 88.6809 C 112.869 91.8211 108.608 93.5853 104.166 93.5853 C 99.7234 93.5853 95.4629 91.8211 92.3217 88.6809 C 89.1805 85.5407 87.4158 81.2816 87.4158 76.8407 C 87.4158 72.3998 89.1805 68.1407 92.3217 65.0005 C 95.4629 61.8603 99.7234 60.0961 104.166 60.0961 C 108.608 60.0961 112.869 61.8603 116.01 65.0005 C 119.151 68.1407 120.916 72.3998 120.916 76.8407 Z"
         inkscape:label="Front tyre" />
      <path
         id="path5-2"
         style="fill:#b3b3b3;stroke:url(#radialGradient103);stroke-width:4.785280200674618"
         d="M 114.524 76.8445 C 114.524 79.5948 113.431 82.2326 111.485 84.1774 C 109.54 86.1222 106.901 87.2148 104.15 87.2148 C 101.399 87.2148 98.7602 86.1222 96.8147 84.1774 C 94.8693 82.2326 93.7763 79.5948 93.7763 76.8445 C 93.7763 74.0941 94.8693 71.4564 96.8147 69.5116 C 98.7602 67.5667 101.399 66.4742 104.15 66.4742 C 106.901 66.4742 109.54 67.5667 111.485 69.5116 C 113.431 71.4564 114.524 74.0941 114.524 76.8445 Z"
         inkscape:label="Front rim" />
      <path
         style="fill:#4d4d4d;fill-opacity:1;fill-rule:nonzero;paint-order:normal;stroke:#131313;stroke-dasharray:none;stroke-dashoffset:0;stroke-linecap:butt;stroke-linejoin:bevel;stroke-opacity:1;stroke-width:0.6000006852623567"
         d="M 104.135 62.1051 L 105.909 62.1051 C 106.771 60.8819 109.225 60.818 110.006 60.7315 C 109.137 60.4027 108.336 60.1769 107.847 60.1056 C 107.368 60.2764 104.577 60.6025 104.135 62.1051 Z M 99.3438 62.9056 L 101.021 62.3299 C 101.44 60.8929 103.74 60.0362 104.451 59.7008 C 103.522 59.6719 102.691 59.7182 102.206 59.8096 C 101.807 60.1267 99.2738 61.341 99.3438 62.9056 Z M 95.0723 65.218 L 96.4721 64.129 C 96.4013 62.634 98.2984 61.0771 98.8615 60.5293 C 97.9738 60.8034 97.2031 61.1167 96.7736 61.3608 C 96.5 61.7899 94.4979 63.761 95.0723 65.218 Z M 91.7834 68.7917 L 92.7535 67.3073 C 92.201 65.9163 93.4897 63.8279 93.8444 63.1269 C 93.0938 63.6743 92.4667 64.2209 92.1397 64.5911 C 92.0203 65.0859 90.7669 67.6 91.7834 68.7917 Z M 89.8335 73.2393 L 90.2688 71.5203 C 89.2945 70.3841 89.835 67.9906 89.9427 67.2124 C 89.4106 67.9738 88.995 68.6944 88.806 69.1505 C 88.8538 69.6573 88.4849 72.4419 89.8335 73.2393 Z M 89.4337 78.0787 L 89.2872 76.3117 C 87.9966 75.5532 87.7303 73.114 87.5795 72.3431 C 87.3235 73.2359 87.1646 74.0523 87.134 74.5451 C 87.3438 75.0089 87.8993 77.7624 89.4337 78.0787 Z M 90.6275 82.7858 L 89.9149 81.162 C 88.4479 80.8636 87.4038 78.643 87.0108 77.9628 C 87.0587 78.8902 87.1734 79.714 87.3046 80.1902 C 87.6536 80.5607 89.0735 82.9847 90.6275 82.7858 Z M 93.2855 86.8503 L 92.0842 85.5458 C 90.5996 85.7397 88.891 83.9784 88.2982 83.4626 C 88.6448 84.3243 89.021 85.0661 89.2995 85.4739 C 89.7501 85.7111 91.8802 87.5428 93.2855 86.8503 Z M 97.1196 89.8319 L 95.5597 88.9879 C 94.2187 89.6531 92.0303 88.542 91.3022 88.2464 C 91.91 88.9489 92.5067 89.5285 92.9025 89.8237 C 93.4057 89.9018 96.0155 90.9429 97.1196 89.8319 Z M 101.714 91.4072 L 99.9648 91.1153 C 98.9126 92.18 96.482 91.8392 95.6972 91.7961 C 96.5002 92.2633 97.253 92.6179 97.7233 92.7684 C 98.2246 92.6789 101.031 92.8166 101.714 91.4072 Z M 106.572 91.4059 L 104.823 91.6977 C 104.173 93.0462 101.763 93.5129 101.007 93.7268 C 101.918 93.908 102.745 93.9991 103.239 93.9887 C 103.684 93.7415 106.383 92.9606 106.572 91.4059 Z M 111.166 89.8279 L 109.606 90.6718 C 109.43 92.1579 107.302 93.3816 106.656 93.8292 C 107.577 93.7049 108.389 93.5226 108.853 93.3526 C 109.193 92.9743 111.492 91.3595 111.166 89.8279 Z M 114.998 86.8441 L 113.797 88.1488 C 114.113 89.6116 112.498 91.4594 112.033 92.0925 C 112.863 91.676 113.572 91.2401 113.955 90.9288 C 114.154 90.4603 115.805 88.1869 114.998 86.8441 Z M 117.654 82.7781 L 116.941 84.4019 C 117.715 85.683 116.788 87.9549 116.554 88.7047 C 117.204 88.0412 117.733 87.3989 117.994 86.9799 C 118.031 86.4723 118.853 83.7864 117.654 82.7781 Z M 118.845 78.0703 L 118.699 79.8375 C 119.847 80.7979 119.708 83.2476 119.73 84.0329 C 120.129 83.1943 120.42 82.4153 120.532 81.9341 C 120.401 81.4422 120.307 78.6348 118.845 78.0703 Z M 118.443 73.2311 L 118.878 74.9499 C 120.276 75.4858 120.94 77.8479 121.216 78.5835 C 121.321 77.6607 121.344 76.8292 121.293 76.3382 C 121.009 75.9151 120.008 73.2906 118.443 73.2311 Z M 116.49 68.7846 L 117.46 70.269 C 118.956 70.322 120.352 72.3406 120.852 72.9469 C 120.652 72.0398 120.403 71.2462 120.195 70.7981 C 119.79 70.4901 117.99 68.3328 116.49 68.7846 Z M 113.199 65.2128 L 114.599 66.302 C 116.031 65.8665 118.007 67.3227 118.676 67.734 C 118.192 66.941 117.699 66.2711 117.357 65.9147 C 116.874 65.7549 114.471 64.2986 113.199 65.2128 Z M 108.926 62.9029 L 110.604 63.4786 C 111.817 62.6018 114.159 63.3378 114.925 63.5096 C 114.21 62.9165 113.526 62.4429 113.087 62.217 C 112.578 62.2228 109.833 61.6254 108.926 62.9029 Z"
         id="path79-9"
         inkscape:label="Front ribs" />
      <path
         id="path101"
         style="fill:#4d4d4d;stroke:#000000;stroke-linejoin:bevel;stroke-width:0.29999975216607494"
         d="M 107.341 76.8444 C 107.341 77.6904 107.004 78.5017 106.406 79.0999 C 105.808 79.6981 104.996 80.0341 104.15 80.0341 C 103.304 80.0341 102.492 79.6981 101.894 79.0999 C 101.295 78.5017 100.959 77.6904 100.959 76.8444 C 100.959 75.9985 101.295 75.1872 101.894 74.589 C 102.492 73.9908 103.304 73.6548 104.15 73.6548 C 104.996 73.6548 105.808 73.9908 106.406 74.589 C 107.004 75.1872 107.341 75.9985 107.341 76.8444 Z"
         inkscape:label="Front center hub" />
      <path
         id="path1"
         d="M 108.559 76.1542 C 108.974 76.1542 109.309 76.4899 109.309 76.904 C 109.309 77.3181 108.974 77.6537 108.559 77.6537 C 108.145 77.6537 107.809 77.3181 107.809 76.904 C 107.809 76.4899 108.145 76.1542 108.559 76.1542 Z M 106.808 73.2289 C 107.101 72.936 107.576 72.9359 107.869 73.2287 C 108.162 73.5215 108.162 73.9963 107.869 74.2892 C 107.576 74.5821 107.101 74.5822 106.808 74.2894 C 106.515 73.9966 106.515 73.5218 106.808 73.2289 Z M 103.501 72.3982 C 103.501 71.984 103.836 71.6482 104.251 71.6482 C 104.665 71.6482 105.001 71.984 105.001 72.3982 C 105.001 72.8124 104.665 73.1482 104.251 73.1482 C 103.836 73.1482 103.501 72.8124 103.501 72.3982 Z M 100.574 74.1487 C 100.281 73.8558 100.281 73.381 100.574 73.0882 C 100.867 72.7954 101.342 72.7955 101.635 73.0884 C 101.928 73.3813 101.928 73.8561 101.635 74.1489 C 101.342 74.4417 100.867 74.4416 100.574 74.1487 Z M 99.7434 77.4551 C 99.329 77.4551 98.9931 77.1194 98.9931 76.7053 C 98.9931 76.2912 99.329 75.9556 99.7434 75.9556 C 100.158 75.9556 100.494 76.2912 100.494 76.7053 C 100.494 77.1194 100.158 77.4551 99.7434 77.4551 Z M 101.494 80.3804 C 101.202 80.6733 100.727 80.6734 100.434 80.3806 C 100.141 80.0878 100.141 79.613 100.434 79.3201 C 100.727 79.0272 101.202 79.0271 101.495 79.3199 C 101.788 79.6127 101.787 80.0875 101.494 80.3804 Z M 104.802 81.2111 C 104.802 81.6253 104.466 81.9611 104.052 81.9611 C 103.638 81.9611 103.302 81.6253 103.302 81.2111 C 103.302 80.7969 103.638 80.4611 104.052 80.4611 C 104.466 80.4611 104.802 80.7969 104.802 81.2111 Z M 107.728 79.4606 C 108.021 79.7535 108.021 80.2283 107.728 80.5211 C 107.435 80.8139 106.961 80.8138 106.668 80.5209 C 106.375 80.228 106.374 79.7532 106.667 79.4604 C 106.96 79.1676 107.435 79.1677 107.728 79.4606 Z"
         style="display:inline;fill:#4d4d4d;stroke:#000000;stroke-dasharray:none;stroke-opacity:1;stroke-width:0.20000021109511817"
         inkscape:label="Front lug nuts" />
    </g>
    <path
       style="display:inline;fill:url(#linearGradient12);stroke:#000000;stroke-width:0.294093;stroke-opacity:1"
       d="m 74.288479,65.340234 h 5.838745 c 0.986142,0 2.154614,0.854296 2.154614,1.739123 l -1.926589,13.604591 c -0.06045,1.002998 -0.721943,1.617091 -2.346902,1.607762 H 53.764055 V 70.579781 63.41393 l 6.162726,-0.542571 1.646433,6.321966 11.801685,-0.172715 z"
       id="path12"
       inkscape:label="Fuel tank"
       sodipodi:nodetypes="cccccccccccc" />
    <path
       style="display:inline;fill:#333333;stroke:#050505;stroke-width:0.264583;stroke-opacity:1"
       d="m 16.800369,53.806007 v 0.882478 c 0,0.211681 0.26665,0.433438 0.591336,0.444936 l 4.849328,0.303435 2.957093,0.05124 4.526087,-0.609282 26.194693,9.732789 4.57793,-1.388628 -8.551166,-12.580856 -14.126722,-4.41546 -10.980483,1.892926 c -3.386164,1.448661 -6.878742,3.032965 -9.321748,4.557895 -0.446347,0.306988 -0.655132,0.693162 -0.716348,1.128527 z"
       id="path18"
       sodipodi:nodetypes="ccccccccccccc"
       inkscape:label="Rear inner fender"
       sodipodi:insensitive="true" />
    <path
       style="display:inline;fill:url(#linearGradient14);stroke:#000000;stroke-width:0.265;stroke-dasharray:none;stroke-opacity:1"
       d="m 60.331092,70.672194 c -5.47779,-24.071248 -23.35596,-23.890593 -39.12167,-20.024652 0.160028,-1.256918 0.507532,-2.361511 1.610798,-2.852048 18.906721,-4.884532 31.289252,-2.097023 38.712091,21.151681 0.06544,2.52176 -0.301824,5.957092 -1.201219,1.725019 z"
       id="path17"
       sodipodi:nodetypes="ccccc"
       inkscape:label="Rear fender painted" />
    <g
       id="g100"
       inkscape:label="Rear wheel">
      <path
         id="path6"
         style="fill:#1a1a1a;stroke:#050505;stroke-linejoin:bevel;stroke-width:0.4000006553533591"
         d="M 58.681 72.0147 C 58.681 77.7633 56.3974 83.2764 52.3326 87.3413 C 48.2677 91.4061 42.7546 93.6897 37.0061 93.6897 C 31.2575 93.6897 25.7444 91.4061 21.6796 87.3413 C 17.6147 83.2764 15.3311 77.7633 15.3311 72.0147 C 15.3311 60.0439 25.0353 50.3397 37.0061 50.3397 C 48.9768 50.3397 58.681 60.0439 58.681 72.0147 Z"
         inkscape:label="Rear tyre" />
      <path
         id="path5"
         style="fill:#b3b3b3;stroke:url(#radialGradient111);stroke-linecap:round;stroke-linejoin:bevel;stroke-width:6.376001106518303"
         d="M 51.2742 71.9897 C 51.2742 79.866 44.8861 86.2511 37.0061 86.2511 C 29.126 86.2511 22.738 79.866 22.738 71.9897 C 22.738 68.2074 24.2412 64.5799 26.917 61.9054 C 29.5928 59.2309 33.2219 57.7283 37.0061 57.7283 C 40.7902 57.7283 44.4193 59.2309 47.0951 61.9054 C 49.7709 64.5799 51.2742 68.2074 51.2742 71.9897 Z"
         inkscape:label="Rear rim" />
      <path
         style="fill:#4d4d4d;fill-opacity:1;fill-rule:nonzero;paint-order:normal;stroke:#151515;stroke-dasharray:none;stroke-dashoffset:0;stroke-linecap:butt;stroke-linejoin:bevel;stroke-opacity:1;stroke-width:0.6000001861175607"
         d="M 37.0007 53.1651 L 39.2741 53.1651 C 39.4656 51.7774 42.5837 51.0007 43.3572 50.932 C 43.1473 50.8507 42.102 50.5624 41.369 50.4355 C 40.7543 50.6543 37.5672 51.2396 37.0007 53.1651 Z M 31.6949 53.9292 L 33.8762 53.289 C 33.6688 51.9035 36.4417 50.2803 37.1645 49.9965 C 36.9402 49.9776 35.856 49.9954 35.1169 50.08 C 34.5887 50.463 31.6958 51.9221 31.6949 53.9292 Z M 26.8194 56.1564 L 28.7319 54.9278 C 28.1424 53.6569 30.3454 51.3186 30.959 50.8428 C 30.7384 50.8878 29.7031 51.2102 29.0179 51.4994 C 28.619 52.0157 26.2545 54.2304 26.8194 56.1564 Z M 22.7691 59.6663 L 24.2579 57.949 C 23.3341 56.8955 24.7888 54.0315 25.2434 53.4022 C 25.0444 53.5076 24.1419 54.1084 23.5659 54.5789 C 23.3288 55.1866 21.6843 57.9774 22.7691 59.6663 Z M 19.8723 64.1746 L 20.8167 62.1076 C 19.6333 61.357 20.2219 58.1993 20.4807 57.4675 C 20.3195 57.6246 19.6229 58.4553 19.2029 59.0689 C 19.1466 59.7188 18.3554 62.8596 19.8723 64.1746 Z M 18.3635 69.316 L 18.6871 67.0668 C 17.3401 66.6798 17.0147 63.4844 17.0568 62.7093 C 16.9464 62.9054 16.5121 63.8986 16.2821 64.6057 C 16.4113 65.245 16.5374 68.4815 18.3635 69.316 Z M 18.3651 74.6741 L 18.0415 72.4249 C 16.64 72.4328 15.4272 69.4585 15.249 68.703 C 15.1984 68.9222 15.0617 69.9974 15.0403 70.7406 C 15.3444 71.3177 16.3777 74.3876 18.3651 74.6741 Z M 19.8768 79.8146 L 18.9324 77.7477 C 17.5899 78.15 15.5878 75.6376 15.2039 74.9629 C 15.2172 75.1875 15.389 76.2577 15.578 76.9768 C 16.0325 77.4449 17.8891 80.0994 19.8768 79.8146 Z M 22.7762 84.3213 L 21.2875 82.604 C 20.1128 83.3681 17.4836 81.5212 16.9251 80.9819 C 17.0011 81.1937 17.4677 82.1722 17.8516 82.8089 C 18.4197 83.1301 20.9493 85.1542 22.7762 84.3213 Z M 26.8285 87.8289 L 24.916 86.6004 C 24.0042 87.6643 20.961 86.6327 20.2731 86.2725 C 20.4058 86.4543 21.1292 87.2617 21.6771 87.7646 C 22.3126 87.9127 25.3104 89.1425 26.8285 87.8289 Z M 31.7053 90.0533 L 29.5239 89.4131 C 28.949 90.6907 25.7383 90.5578 24.9767 90.4059 C 25.1552 90.543 26.077 91.114 26.7444 91.4422 C 27.396 91.4054 30.6189 91.7412 31.7053 90.0533 Z M 37.0115 90.8143 L 34.7381 90.8143 C 34.5465 92.202 31.4284 92.9787 30.6549 93.0474 C 30.8648 93.1287 31.9102 93.417 32.6431 93.5439 C 33.2579 93.3251 36.4449 92.7398 37.0115 90.8143 Z M 42.3173 90.0502 L 40.1359 90.6904 C 40.3433 92.0759 37.5704 93.6991 36.8476 93.9829 C 37.0719 94.0018 38.1562 93.984 38.8952 93.8994 C 39.4234 93.5164 42.3164 92.0573 42.3173 90.0502 Z M 47.1928 87.823 L 45.2802 89.0516 C 45.8697 90.3225 43.6667 92.6608 43.0531 93.1366 C 43.2737 93.0916 44.309 92.7692 44.9943 92.48 C 45.3931 91.9637 47.7576 89.749 47.1928 87.823 Z M 51.243 84.3131 L 49.7542 86.0304 C 50.6781 87.0839 49.2234 89.9479 48.7688 90.5772 C 48.9677 90.4718 49.8702 89.871 50.4462 89.4005 C 50.6833 88.7928 52.3278 86.002 51.243 84.3131 Z M 54.1398 79.8048 L 53.1954 81.8718 C 54.3788 82.6224 53.7903 85.7801 53.5315 86.5119 C 53.6926 86.3548 54.3893 85.5241 54.8093 84.9105 C 54.8655 84.2606 55.6568 81.1198 54.1398 79.8048 Z M 55.6486 74.6634 L 55.3251 76.9126 C 56.6721 77.2996 56.9974 80.495 56.9554 81.2701 C 57.0657 81.074 57.5 80.0808 57.73 79.3737 C 57.6009 78.7344 57.4748 75.4979 55.6486 74.6634 Z M 55.6471 69.3053 L 55.9706 71.5545 C 57.3721 71.5466 58.585 74.5209 58.7631 75.2764 C 58.8137 75.0572 58.9505 73.982 58.9719 73.2388 C 58.6677 72.6617 57.6345 69.5918 55.6471 69.3053 Z M 54.1353 64.1648 L 55.0797 66.2317 C 56.4222 65.8294 58.4243 68.3418 58.8082 69.0165 C 58.795 68.7919 58.6231 67.7217 58.4342 67.0026 C 57.9796 66.5345 56.123 63.88 54.1353 64.1648 Z M 51.2359 59.6581 L 52.7247 61.3754 C 53.8994 60.6113 56.5285 62.4582 57.087 62.9975 C 57.011 62.7857 56.5445 61.8072 56.1605 61.1705 C 55.5924 60.8493 53.0628 58.8252 51.2359 59.6581 Z M 47.1836 56.1505 L 49.0962 57.379 C 50.0079 56.3151 53.0511 57.3467 53.739 57.7069 C 53.6064 57.5251 52.8829 56.7177 52.335 56.2148 C 51.6995 56.0667 48.7018 54.8369 47.1836 56.1505 Z M 42.3069 53.9261 L 44.4882 54.5663 C 45.0631 53.2887 48.2739 53.4216 49.0354 53.5735 C 48.8569 53.4364 47.9352 52.8654 47.2677 52.5372 C 46.6162 52.574 43.3932 52.2382 42.3069 53.9261 Z"
         id="path79"
         inkscape:label="Rear ribs" />
      <path
         id="path102"
         style="fill:url(#radialGradient17);stroke:#000000;stroke-linejoin:bevel;stroke-width:0.2999998478582116"
         d="M 39.398 71.9897 C 39.398 72.6236 39.1461 73.2316 38.6975 73.6799 C 38.2489 74.1281 37.6406 74.3799 37.0061 74.3799 C 36.3717 74.3799 35.7632 74.1281 35.3148 73.6799 C 34.8662 73.2316 34.6141 72.6236 34.6141 71.9897 C 34.6141 71.3558 34.8662 70.7478 35.3148 70.2995 C 35.7632 69.8513 36.3717 69.5995 37.0061 69.5995 C 37.6406 69.5995 38.2489 69.8513 38.6975 70.2995 C 39.1461 70.7478 39.398 71.3558 39.398 71.9897 Z"
         inkscape:label="Rear center hub" />
      <path
         id="path3"
         d="M 37.7061 75.7348 C 37.7061 76.1214 37.3927 76.4348 37.0061 76.4348 C 36.6195 76.4348 36.3061 76.1214 36.3061 75.7348 C 36.3061 75.3482 36.6195 75.0348 37.0061 75.0348 C 37.3927 75.0348 37.7061 75.3482 37.7061 75.7348 Z M 40.1401 74.1416 C 40.4134 74.415 40.4134 74.8582 40.1401 75.1316 C 39.8667 75.4049 39.4235 75.4049 39.1501 75.1316 C 38.8768 74.8582 38.8768 74.415 39.1501 74.1416 C 39.4235 73.8682 39.8667 73.8682 40.1401 74.1416 Z M 40.7346 71.294 C 41.1212 71.294 41.4346 71.6074 41.4346 71.994 C 41.4346 72.3806 41.1212 72.694 40.7346 72.694 C 40.348 72.694 40.0346 72.3806 40.0346 71.994 C 40.0346 71.6074 40.348 71.294 40.7346 71.294 Z M 39.1414 68.86 C 39.4148 68.5866 39.858 68.5866 40.1314 68.86 C 40.4047 69.1333 40.4047 69.5765 40.1314 69.8499 C 39.858 70.1233 39.4148 70.1233 39.1414 69.8499 C 38.8681 69.5765 38.8681 69.1333 39.1414 68.86 Z M 36.2938 68.2654 C 36.2938 67.8788 36.6072 67.5654 36.9938 67.5654 C 37.3804 67.5654 37.6938 67.8788 37.6938 68.2654 C 37.6938 68.652 37.3804 68.9654 36.9938 68.9654 C 36.6072 68.9654 36.2938 68.652 36.2938 68.2654 Z M 33.8598 69.8586 C 33.5864 69.5852 33.5864 69.142 33.8598 68.8686 C 34.1332 68.5953 34.5764 68.5953 34.8497 68.8686 C 35.1231 69.142 35.1231 69.5852 34.8497 69.8586 C 34.5764 70.132 34.1332 70.132 33.8598 69.8586 Z M 33.2652 72.7063 C 32.8786 72.7063 32.5652 72.3929 32.5652 72.0063 C 32.5652 71.6197 32.8786 71.3062 33.2652 71.3062 C 33.6518 71.3062 33.9652 71.6197 33.9652 72.0063 C 33.9652 72.3929 33.6518 72.7063 33.2652 72.7063 Z M 34.8584 75.1403 C 34.5851 75.4136 34.1418 75.4136 33.8685 75.1403 C 33.5951 74.8669 33.5951 74.4237 33.8685 74.1503 C 34.1418 73.8769 34.5851 73.8769 34.8584 74.1503 C 35.1318 74.4237 35.1318 74.8669 34.8584 75.1403 Z"
         style="fill:#4d4d4d;stroke:#000000;stroke-dasharray:none;stroke-opacity:1;stroke-width:0.200000003309804"
         inkscape:label="Rear lug nuts" />
    </g>
    <g
       id="g10"
       inkscape:label="Cab">
      <path
         style="display:inline;fill:#784421;fill-opacity:1;stroke:#000000;stroke-width:0.264583;stroke-opacity:1"
         d="m 74.767206,45.688122 -5.14227,-1.587432 c -0.488445,-0.257105 -0.793738,-0.115945 -0.970879,0.369736 l -1.458473,5.593889 c -0.02352,0.191773 -0.0059,0.377663 0.141901,0.544968 l 2.103216,2.326746 c 0.147995,0.111169 0.360462,0.447188 0.372723,0.622105 l 0.384044,4.134594 c 0.07141,0.747354 0.181199,0.719785 0.357305,1.001975 l 4.274837,5.019122 1.317261,-17.972638 z"
         id="path31"
         sodipodi:nodetypes="cccccccccccc"
         inkscape:label="Dashboard" />
      <path
         style="display:inline;fill:#784421;stroke:#000000;stroke-width:0.264583;stroke-opacity:1"
         d="m 64.427105,44.225149 c -0.23857,-0.119507 -0.502052,-0.03971 -0.635912,0.163614 l -0.944081,1.560995 c -0.143443,0.209046 -0.04697,0.526658 0.207651,0.688432 l 4.36578,2.38969 0.653681,-2.962122 z"
         id="path24"
         sodipodi:nodetypes="ccccccc"
         inkscape:label="Steering wheel column" />
      <path
         id="path15"
         style="display:inline;fill:#1a1a1a;stroke:#000000;stroke-opacity:1;stroke-width:0.3;stroke-dasharray:none"
         d="M 63.5124 40.6659 L 58.901 47.3698 C 58.7368 47.7939 59.0588 48.0377 59.4652 47.8861 L 62.8509 45.5284 L 63.2865 44.7776 L 64.2132 40.9156 C 64.2785 40.6085 63.7235 40.3097 63.5124 40.6659 Z M 63.2284 42.0636 C 63.3902 41.8594 63.7154 41.2414 63.4391 42.1472 L 62.8476 44.3126 C 62.8034 44.4122 62.7767 44.4872 62.7207 44.4557 C 62.6598 44.4215 62.5948 44.3733 62.5325 44.4592 L 62.1234 45.098 C 62.0808 45.2054 62.1625 45.2086 62.1958 45.2435 C 62.2636 45.3144 62.3087 45.2791 62.1748 45.4045 L 60.4871 46.5088 C 59.6766 47.1287 60.221 46.5085 60.304 46.3214 Z"
         inkscape:label="Steering wheel" />
      <path
         style="display:inline;fill:#333333;stroke:#000000;stroke-width:0.264583;stroke-opacity:1"
         d="m 73.458625,68.279319 0.145896,-0.899692 C 70.943501,66.443113 62.046994,66.217384 61.91835,66.836477 l 0.573761,1.564417 z"
         id="path25"
         inkscape:label="Floor"
         sodipodi:nodetypes="ccccc" />
      <path
         style="display:inline;fill:#1a1a1a;stroke:#000000;stroke-width:0.264583;stroke-opacity:1"
         d="m 46.806357,44.237878 c 5.446902,1.540306 11.057257,4.521101 16.086191,6.999843 4.105354,2.023513 7.51188,1.69984 12.114391,1.69984 -0.01263,0.61855 0.0026,0.126016 -0.03688,0.795703 -4.294531,0 -8.04653,0.391703 -12.259259,-1.624377 -5.032086,-2.408198 -10.643816,-5.590151 -16.145713,-6.931101 z"
         id="path22"
         inkscape:label="Door inner bar"
         sodipodi:nodetypes="csccscc" />
      <path
         style="display:inline;fill:url(#linearGradient31);stroke:none;stroke-width:0.228022;stroke-opacity:1"
         d="m 62.484375,68.535965 10.982138,-0.04804 C 76.6833,52.065223 74.562597,36.021569 70.335424,28.044495 H 35.819763 C 33.041791,32.483375 31.745995,39.6229 31.787749,45.119971 49.92663,43.405462 59.664354,55.57937 62.484375,68.535965 Z"
         id="path8-1"
         sodipodi:nodetypes="cccccc"
         inkscape:label="Cab glass" />
      <path
         id="path8"
         style="fill:#808080;stroke:#000000;stroke-width:0.252656;stroke-opacity:1"
         inkscape:label="Cab frame"
         d="m 34.122666,26.58627 c -3.07808,4.918418 -4.870497,13.632656 -4.824232,19.723581 19.738317,-2.555729 29.148448,9.401947 32.21013,23.922572 H 74.891116 C 78.455416,52.03556 76.373273,35.425116 71.689434,26.58627 Z m 1.696983,1.45806 h 7.991797 v 17.454677 c -3.501098,-0.894173 -7.500947,-1.64647 -12.02362,-1.218982 -0.04175,-5.49706 1.253857,-11.796824 4.031823,-16.235695 z m 11.614752,0 h 22.901271 c 4.227163,7.977058 6.347646,24.020938 3.130866,40.443604 l -10.670916,0.04805 C 60.934611,59.985569 55.74717,50.316158 47.434401,46.855253 Z"
         sodipodi:nodetypes="ccccccccccccccccc" />
      <path
         style="display:inline;fill:#999999;stroke:#000000;stroke-width:0.296253;stroke-opacity:1"
         d="M 30.574858,27.019988 H 76.20122 c 0.351067,-0.03808 0.373952,-0.364766 0.393062,-0.743213 -0.245834,-2.622378 -1.268251,-3.364403 -3.611899,-3.364403 H 33.679926 c -3.024144,0 -3.679451,1.184981 -3.981049,3.13846 -0.12086,0.455162 0.167065,0.967747 0.875981,0.969156 z"
         id="path9"
         inkscape:label="Roof"
         sodipodi:nodetypes="ccccccc" />
      <path
         style="fill:#333333;stroke:#080808;stroke-width:0.264583;stroke-opacity:1"
         d="m 71.996423,50.730895 c -0.728637,1.274238 -0.789259,4.342205 0,5.604319 0.260116,0.415954 1.226471,0.424863 1.471766,0 0.719362,-1.245971 0.583143,-4.281583 0,-5.604319 -0.197903,-0.448901 -1.228239,-0.425879 -1.471766,0 z"
         id="path23"
         sodipodi:nodetypes="sssss"
         inkscape:label="Door handle" />
    </g>
    <g
       id="g13"
       inkscape:label="Exhaust"
       style="display:inline"
       sodipodi:insensitive="true">
      <path
         style="fill:url(#linearGradient10);stroke:#080808;stroke-opacity:1;stroke-width:0.25744622120763694"
         d="M 76.4438 68.0893 C 78.1037 55.6704 78.5299 42.426 76.5675 29.1424 C 76.3632 28.0815 76.693 27.9894 77.5107 28.0189 C 79.231 25.4239 79.9872 25.5459 82.2745 25.1267 C 82.728 25.103 82.7727 25.2911 82.8011 25.4287 C 82.8277 26.0654 82.5273 26.8972 81.5879 27.0748 C 80.9676 27.2161 80.4685 27.3077 80.1143 28.0189 C 81.4581 27.9865 81.0567 28.0201 81.2616 29.0671 C 82.8538 42.7714 82.1646 55.6292 81.1926 68.3819 C 80.9328 70.5037 76.0444 70.8064 76.4438 68.0893 Z"
         id="path11"
         inkscape:label="Exhaust pipe" />
      <path
         id="path13"
         style="display:inline;fill:#4d4d4d;stroke-width:0.5062334676751873"
         d="M 82.4858 26.1762 C 82.2909 26.6033 81.9687 26.9108 81.7661 26.863 C 81.5634 26.8152 81.5571 26.4302 81.7519 26.0031 C 81.8455 25.798 81.9738 25.6104 82.1088 25.4816 C 82.2438 25.3528 82.3743 25.2933 82.4716 25.3163 C 82.5689 25.3393 82.6251 25.4427 82.6278 25.604 C 82.6304 25.7653 82.5793 25.9711 82.4858 26.1762 Z"
         inkscape:label="Exhaust tip hole" />
      <path
         style="fill:none;fill-opacity:1;stroke:#080808;stroke-opacity:1;stroke-width:0.25744622120763694"
         d="M 77.4711 28.0247 C 78.3828 28.4528 79.2384 28.4182 80.123 28.0132"
         id="path32"
         inkscape:label="Exhaust tip cutout" />
      <path
         style="display:inline;fill:none;fill-opacity:1;stroke:#080808;stroke-dasharray:none;stroke-opacity:1;stroke-width:0.25785100015421464"
         d="M 82.3518 25.1308 C 81.7115 25.3491 81.0589 26.5671 81.6551 27.0451"
         id="path33"
         inkscape:label="Exhaust tip hole stroke" />
    </g>
    <path
       id="path14"
       style="display:inline;fill:#4d4d4d;stroke:#000000;stroke-width:0.265;stroke-dasharray:none;stroke-opacity:1"
       inkscape:label="Ladder"
       d="m 61.448962,70.230855 v 15.171167 c 0,0.319375 0.236638,0.610834 0.531234,0.617534 h 12.25765 c 0.367595,0 0.644922,-0.278539 0.644922,-0.678512 V 70.230855 h -1.078487 v 3.936711 c 0,0.302509 -0.197162,0.569141 -0.594796,0.571541 H 63.031812 c -0.329435,0 -0.521416,-0.226114 -0.521416,-0.492993 v -4.015259 z m 1.061434,5.959542 c 0,-0.3324 0.1938,-0.43223 0.521416,-0.43223 h 10.177673 c 0.440844,0 0.594796,0.228274 0.594796,0.538697 v 3.001138 c 0,0.302509 -0.197162,0.569658 -0.594796,0.572058 H 63.031812 c -0.329435,0 -0.521416,-0.226114 -0.521416,-0.492993 z m 0,5.126232 c 0.01384,-0.288917 0.222318,-0.428026 0.521416,-0.428026 l 10.177673,-0.01244 c 0.37501,0 0.594796,0.245858 0.594796,0.583915 v 2.968876 c 0,0.302509 -0.197162,0.569141 -0.594796,0.571541 H 63.031812 c -0.329435,0 -0.521416,-0.226114 -0.521416,-0.492993 z"
       sodipodi:nodetypes="cccscccscssccccccscsscccccscssc"
       sodipodi:insensitive="true" />
    <g
       id="g27"
       inkscape:label="Antenna">
      <path
         style="fill:#090909;fill-opacity:1;stroke:#000000;stroke-width:0.264583;stroke-opacity:1"
         d="m 68.042794,20.901823 v 1.983088 h 1.036614 v -2.043182 z"
         id="path27"
         inkscape:label="Antenna stand" />
      <path
         style="display:inline;fill:#f9f9f9;stroke:#000000;stroke-width:0.264583;stroke-opacity:1"
         d="m 65.173161,19.992725 c 2.012637,-1.506769 4.246062,-1.716413 6.835521,0.165644 0.440861,0.320424 0.21657,0.657222 -0.627926,0.663279 h -5.78129 c -0.861051,-0.04764 -0.842818,-0.517099 -0.426305,-0.828923 z"
         id="path26"
         sodipodi:nodetypes="ssccs"
         inkscape:label="Antenna cupola" />
    </g>
  </g>
</svg>
